<svg width="128" height="128" viewBox="0 0 128 128" fill="none" xmlns="http://www.w3.org/2000/svg">
<g clip-path="url(#clip0_589_348)" filter="url(#filter0_d_589_348)">
<path d="M56.2397 20.03C58.2279 20.03 59.8396 18.4182 59.8396 16.43C59.8396 14.4417 58.2279 12.83 56.2397 12.83C54.2514 12.83 52.6396 14.4417 52.6396 16.43C52.6396 18.4182 54.2514 20.03 56.2397 20.03Z" fill="#FBFBFB"/>
<path d="M67.2504 20.03C69.2386 20.03 70.8504 18.4182 70.8504 16.43C70.8504 14.4417 69.2386 12.83 67.2504 12.83C65.2622 12.83 63.6504 14.4417 63.6504 16.43C63.6504 18.4182 65.2622 20.03 67.2504 20.03Z" fill="#FBFBFB"/>
<path d="M56.2397 110.71C58.2279 110.71 59.8396 109.098 59.8396 107.11C59.8396 105.122 58.2279 103.51 56.2397 103.51C54.2514 103.51 52.6396 105.122 52.6396 107.11C52.6396 109.098 54.2514 110.71 56.2397 110.71Z" fill="#FBFBFB"/>
<path d="M67.2504 110.71C69.2386 110.71 70.8504 109.098 70.8504 107.11C70.8504 105.122 69.2386 103.51 67.2504 103.51C65.2622 103.51 63.6504 105.122 63.6504 107.11C63.6504 109.098 65.2622 110.71 67.2504 110.71Z" fill="#FBFBFB"/>
<path d="M107.09 59.86C109.078 59.86 110.69 58.2483 110.69 56.26C110.69 54.2718 109.078 52.66 107.09 52.66C105.102 52.66 103.49 54.2718 103.49 56.26C103.49 58.2483 105.102 59.86 107.09 59.86Z" fill="#FBFBFB"/>
<path d="M107.09 70.87C109.078 70.87 110.69 69.2583 110.69 67.27C110.69 65.2818 109.078 63.67 107.09 63.67C105.102 63.67 103.49 65.2818 103.49 67.27C103.49 69.2583 105.102 70.87 107.09 70.87Z" fill="#FBFBFB"/>
<path d="M16.4096 59.86C18.3978 59.86 20.0096 58.2483 20.0096 56.26C20.0096 54.2718 18.3978 52.66 16.4096 52.66C14.4213 52.66 12.8096 54.2718 12.8096 56.26C12.8096 58.2483 14.4213 59.86 16.4096 59.86Z" fill="#FBFBFB"/>
<path d="M16.4096 70.87C18.3978 70.87 20.0096 69.2583 20.0096 67.27C20.0096 65.2818 18.3978 63.67 16.4096 63.67C14.4213 63.67 12.8096 65.2818 12.8096 67.27C12.8096 69.2583 14.4213 70.87 16.4096 70.87Z" fill="#FBFBFB"/>
<path d="M33.8297 101.7C33.1385 101.691 32.4651 101.48 31.8925 101.093C31.3199 100.706 30.8731 100.16 30.6073 99.5218C30.3414 98.8838 30.2682 98.1819 30.3966 97.5028C30.5249 96.8236 30.8493 96.1969 31.3297 95.7L45.1397 81.87C45.8081 81.2194 46.7069 80.8599 47.6397 80.87H75.9997C76.9324 80.8599 77.8312 81.2194 78.4997 81.87L101.13 104.53C101.739 105.204 102.066 106.085 102.043 106.993C102.02 107.901 101.649 108.765 101.007 109.407C100.365 110.05 99.5007 110.42 98.5929 110.443C97.6851 110.466 96.8032 110.139 96.1297 109.53L74.4897 87.91H49.0997L36.3197 100.67C35.9933 100.998 35.6051 101.257 35.1778 101.434C34.7504 101.611 34.2922 101.701 33.8297 101.7V101.7Z" fill="#FBFBFB"/>
<path d="M76 42.7001H47.5C47.0364 42.7069 46.576 42.6221 46.1453 42.4505C45.7145 42.2789 45.3219 42.0238 44.99 41.7001L31.3 27.88C30.691 27.2065 30.3641 26.3246 30.3869 25.4168C30.4097 24.509 30.7805 23.6447 31.4226 23.0026C32.0647 22.3605 32.929 21.9897 33.8368 21.9669C34.7446 21.9441 35.6265 22.271 36.3 22.88L49 35.63H74.54L87.08 23C87.4019 22.6441 87.7927 22.3574 88.2288 22.1572C88.6649 21.957 89.1371 21.8475 89.6168 21.8355C90.0965 21.8234 90.5737 21.909 91.0193 22.0871C91.4649 22.2651 91.8696 22.5319 92.2089 22.8712C92.5482 23.2105 92.815 23.6152 92.993 24.0608C93.1711 24.5064 93.2567 24.9836 93.2446 25.4633C93.2326 25.943 93.1231 26.4152 92.9229 26.8513C92.7227 27.2874 92.436 27.6782 92.08 28L78.52 41.66C78.1903 41.9923 77.7975 42.2553 77.3648 42.4339C76.9321 42.6125 76.4681 42.703 76 42.7001V42.7001Z" fill="#FBFBFB"/>
<path d="M25.4398 93.18C24.7495 93.1693 24.0775 92.9569 23.5064 92.5691C22.9352 92.1813 22.49 91.635 22.2254 90.9973C21.9607 90.3597 21.8883 89.6586 22.0171 88.9804C22.1458 88.3022 22.47 87.6764 22.9498 87.18L35.5598 74.56V49.17L22.8098 36.39C22.2007 35.7165 21.8738 34.8346 21.8966 33.9268C21.9194 33.019 22.2902 32.1547 22.9324 31.5126C23.5745 30.8704 24.4388 30.4996 25.3466 30.4768C26.2544 30.454 27.1363 30.7809 27.8098 31.39L41.5998 45.21C42.2494 45.8791 42.6088 46.7775 42.5998 47.71V76C42.6071 76.9352 42.2482 77.8361 41.5998 78.51L27.9398 92.15C27.6119 92.4785 27.2221 92.7386 26.793 92.9154C26.3638 93.0922 25.9039 93.1821 25.4398 93.18V93.18Z" fill="#FBFBFB"/>
<path d="M107 102.2C106.539 102.205 106.082 102.12 105.655 101.948C105.228 101.776 104.839 101.522 104.51 101.2L81.8098 78.59C81.1578 77.9184 80.7982 77.016 80.8098 76.08V47.56C80.7993 46.6242 81.1587 45.7221 81.8098 45.05L95.5898 31.37C96.2634 30.7609 97.1453 30.434 98.0531 30.4568C98.9609 30.4796 99.8252 30.8504 100.467 31.4925C101.109 32.1347 101.48 32.999 101.503 33.9068C101.526 34.8146 101.199 35.6964 100.59 36.37L87.8398 49V74.61L109.45 96.15C109.93 96.647 110.255 97.2737 110.383 97.9528C110.511 98.6319 110.438 99.3338 110.172 99.9718C109.906 100.61 109.46 101.156 108.887 101.543C108.314 101.93 107.641 102.141 106.95 102.15L107 102.2Z" fill="#FBFBFB"/>
<path d="M64.2402 31.43H70.2402C71.1695 31.4374 72.0642 31.0781 72.7302 30.43L81.3802 21.85C81.7361 21.5282 82.0229 21.1374 82.2231 20.7013C82.4233 20.2652 82.5328 19.7929 82.5448 19.3132C82.5569 18.8335 82.4713 18.3564 82.2932 17.9108C82.1152 17.4652 81.8484 17.0605 81.5091 16.7212C81.1698 16.3819 80.765 16.1151 80.3195 15.937C79.8739 15.759 79.3967 15.6734 78.917 15.6854C78.4373 15.6975 77.9651 15.8069 77.529 16.0071C77.0929 16.2073 76.7021 16.4941 76.3802 16.85L68.7602 24.4H64.2402V31.43Z" fill="#FBFBFB"/>
<path d="M50.37 30.3601C50.6992 30.698 51.0925 30.9667 51.527 31.1505C51.9615 31.3342 52.4283 31.4293 52.9 31.4301H59.17V24.3501H54.39L47.08 16.8501C46.7557 16.5165 46.3688 16.2501 45.9414 16.0661C45.5141 15.882 45.0547 15.7839 44.5895 15.7774C44.1243 15.7709 43.6624 15.8561 43.2301 16.0282C42.7978 16.2002 42.4036 16.4557 42.07 16.7801C41.7365 17.1044 41.4701 17.4913 41.286 17.9186C41.102 18.3459 41.0039 18.8053 40.9974 19.2706C40.9843 20.2101 41.3449 21.1164 42 21.7901L50.37 30.3601Z" fill="#FBFBFB"/>
<path d="M59.1697 92.1099H53.1697C52.237 92.0999 51.3382 92.4594 50.6697 93.1099L42.0397 101.69C41.6838 102.012 41.397 102.403 41.1968 102.839C40.9966 103.275 40.8872 103.747 40.8751 104.227C40.8631 104.706 40.9487 105.184 41.1267 105.629C41.3048 106.075 41.5716 106.479 41.9109 106.819C42.2502 107.158 42.6549 107.425 43.1005 107.603C43.5461 107.781 44.0232 107.867 44.5029 107.855C44.9826 107.842 45.4549 107.733 45.891 107.533C46.327 107.333 46.7179 107.046 47.0397 106.69L54.6397 99.1299H59.1497L59.1697 92.1099Z" fill="#FBFBFB"/>
<path d="M72.75 93.14C72.0803 92.4913 71.1823 92.1321 70.25 92.14H64.25V99.21H68.8L76.35 106.75C77.0236 107.359 77.9054 107.686 78.8132 107.663C79.721 107.64 80.5853 107.27 81.2275 106.627C81.8696 105.985 82.2404 105.121 82.2632 104.213C82.286 103.305 81.9591 102.424 81.35 101.75L72.75 93.14Z" fill="#FBFBFB"/>
<path d="M99.12 59.2301V54.4601L106.62 47.1401C106.979 46.8223 107.27 46.4349 107.474 46.0014C107.679 45.5679 107.794 45.0974 107.811 44.6183C107.829 44.1392 107.749 43.6615 107.576 43.2143C107.403 42.7671 107.141 42.3596 106.807 42.0165C106.472 41.6735 106.071 41.402 105.628 41.2187C105.185 41.0353 104.709 40.9438 104.23 40.9497C103.75 40.9557 103.277 41.0589 102.839 41.2532C102.401 41.4475 102.006 41.7288 101.68 42.0801L93.11 50.4301C92.7609 50.7612 92.4826 51.1596 92.2918 51.6014C92.101 52.0431 92.0017 52.5189 92 53.0001V59.2601L99.12 59.2301Z" fill="#FBFBFB"/>
<path d="M106.68 76.44L99.1201 68.82V64.3H92.0001V70.3C91.9922 71.2324 92.3514 72.1304 93.0001 72.8L101.58 81.45C102.254 82.0591 103.136 82.386 104.043 82.3632C104.951 82.3404 105.815 81.9696 106.458 81.3275C107.1 80.6854 107.471 79.8211 107.493 78.9133C107.516 78.0055 107.189 77.1236 106.58 76.45L106.68 76.44Z" fill="#FBFBFB"/>
<path d="M24.2895 54.72V59.23H31.3595V53.23C31.367 52.3007 31.0076 51.406 30.3595 50.74L21.7795 42.11C21.106 41.5009 20.2241 41.174 19.3163 41.1968C18.4085 41.2196 17.5442 41.5904 16.9021 42.2325C16.26 42.8746 15.8892 43.739 15.8664 44.6468C15.8435 45.5546 16.1705 46.4364 16.7795 47.11L24.2895 54.72Z" fill="#FBFBFB"/>
<path d="M24.2902 64.3V68.85L16.7502 76.41C16.1412 77.0836 15.8142 77.9655 15.8371 78.8733C15.8599 79.7811 16.2307 80.6454 16.8728 81.2875C17.5149 81.9296 18.3792 82.3004 19.287 82.3232C20.1948 82.346 21.0767 82.0191 21.7502 81.41L30.3202 72.82C30.9708 72.1516 31.3303 71.2528 31.3202 70.32V64.32L24.2902 64.3Z" fill="#FBFBFB"/>
<path d="M108.41 112C110.398 112 112.01 110.388 112.01 108.4C112.01 106.412 110.398 104.8 108.41 104.8C106.421 104.8 104.81 106.412 104.81 108.4C104.81 110.388 106.421 112 108.41 112Z" fill="#FBFBFB"/>
</g>
<defs>
<filter id="filter0_d_589_348" x="-4" y="0" width="136" height="136" filterUnits="userSpaceOnUse" color-interpolation-filters="sRGB">
<feFlood flood-opacity="0" result="BackgroundImageFix"/>
<feColorMatrix in="SourceAlpha" type="matrix" values="0 0 0 0 0 0 0 0 0 0 0 0 0 0 0 0 0 0 127 0" result="hardAlpha"/>
<feOffset dy="4"/>
<feGaussianBlur stdDeviation="2"/>
<feComposite in2="hardAlpha" operator="out"/>
<feColorMatrix type="matrix" values="0 0 0 0 0 0 0 0 0 0 0 0 0 0 0 0 0 0 0.25 0"/>
<feBlend mode="normal" in2="BackgroundImageFix" result="effect1_dropShadow_589_348"/>
<feBlend mode="normal" in="SourceGraphic" in2="effect1_dropShadow_589_348" result="shape"/>
</filter>
<clipPath id="clip0_589_348">
<rect width="128" height="128" fill="white"/>
</clipPath>
</defs>
</svg>