<svg xmlns="http://www.w3.org/2000/svg" viewBox="0 0 512 512"><!--!Font Awesome Free 6.7.2 by @fontawesome - https://fontawesome.com License - https://fontawesome.com/license/free Copyright 2025 Fonticons, Inc.--><path fill="#ffffff" d="M510.4 254.8l-12.1-76.3a132.5 132.5 0 0 0 -37.2-73l-54.8-54.8c-19.7-19.7-45.2-32.7-72.7-37.1l-76.7-12.2c-27.5-4.4-55.7 .1-80.5 12.8L107.3 49.6a132.3 132.3 0 0 0 -57.8 57.8l-35.1 68.9a132.6 132.6 0 0 0 -12.8 80.9l12.1 76.3a132.5 132.5 0 0 0 37.2 73l54.8 54.8a132.1 132.1 0 0 0 72.7 37.1l76.7 12.1c27.5 4.4 55.7-.1 80.5-12.8l69.1-35.2a132.3 132.3 0 0 0 57.8-57.8l35.1-68.9c12.7-25 17.2-53.3 12.8-81zM176 368c-17.7 0-32-14.3-32-32s14.3-32 32-32 32 14.3 32 32-14.3 32-32 32zm32-160c-17.7 0-32-14.3-32-32s14.3-32 32-32 32 14.3 32 32-14.3 32-32 32zm160 128c-17.7 0-32-14.3-32-32s14.3-32 32-32 32 14.3 32 32-14.3 32-32 32z"/></svg>