<svg width="31" height="31" viewBox="0 0 31 31" fill="none" xmlns="http://www.w3.org/2000/svg">
<path d="M11.9699 26.4833V22.6572C11.9699 21.6805 12.7675 20.8888 13.7513 20.8888H17.3477C17.8202 20.8888 18.2733 21.0751 18.6074 21.4067C18.9415 21.7384 19.1291 22.1882 19.1291 22.6572V26.4833C19.1262 26.8894 19.2866 27.2798 19.5747 27.568C19.8629 27.8561 20.255 28.0182 20.6641 28.0182H23.1177C24.2636 28.0211 25.3636 27.5713 26.175 26.7679C26.9863 25.9646 27.4423 24.8737 27.4423 23.7361V12.8362C27.4423 11.9173 27.032 11.0456 26.322 10.456L17.9752 3.83826C16.5232 2.67793 14.4429 2.7154 13.0343 3.92724L4.87797 10.456C4.13437 11.0282 3.68993 11.9025 3.66797 12.8362V23.725C3.66797 26.096 5.60418 28.0182 7.99262 28.0182H10.3902C11.2398 28.0182 11.9302 27.3378 11.9363 26.4944L11.9699 26.4833Z" fill="#EFF2F4"/>
</svg>