<svg width="261" height="46" viewBox="0 0 261 46" fill="none" xmlns="http://www.w3.org/2000/svg">
<rect x="0.523438" y="0.923096" width="259.954" height="45.0462" rx="3.75385" fill="#667A8A"/>
<path d="M29.9211 10.9333C33.0274 10.9333 35.5609 13.4234 35.5609 16.489V22.4827H27.9223C27.3748 22.4827 26.942 22.9081 26.942 23.4462C26.942 23.9717 27.3748 24.4097 27.9223 24.4097H35.5609V30.3908C35.5609 33.4564 33.0274 35.959 29.8956 35.959H23.6956C20.5765 35.959 18.043 33.4689 18.043 30.4033V16.5016C18.043 13.4234 20.5892 10.9333 23.7083 10.9333H29.9211ZM38.7394 19.1295C39.1148 18.7416 39.7279 18.7416 40.1033 19.117L43.7571 22.7582C43.9448 22.9459 44.0449 23.1837 44.0449 23.4464C44.0449 23.6967 43.9448 23.9469 43.7571 24.1221L40.1033 27.7633C39.9156 27.951 39.6654 28.0511 39.4276 28.0511C39.1774 28.0511 38.9271 27.951 38.7394 27.7633C38.364 27.388 38.364 26.7748 38.7394 26.3994L40.7415 24.4099H35.5612V22.4829H40.7415L38.7394 20.4934C38.364 20.118 38.364 19.5049 38.7394 19.1295Z" fill="white"/>
<path d="M63.7232 27.2795H67.1767V28.9462H61.621V18.4654H63.7232V27.2795ZM72.3568 29.0813C71.556 29.0813 70.8352 28.9061 70.1946 28.5558C69.5539 28.1954 69.0484 27.6899 68.678 27.0392C68.3176 26.3885 68.1375 25.6378 68.1375 24.7869C68.1375 23.936 68.3227 23.1853 68.693 22.5346C69.0734 21.8839 69.589 21.3834 70.2396 21.0331C70.8903 20.6727 71.616 20.4925 72.4168 20.4925C73.2177 20.4925 73.9434 20.6727 74.5941 21.0331C75.2447 21.3834 75.7553 21.8839 76.1256 22.5346C76.506 23.1853 76.6962 23.936 76.6962 24.7869C76.6962 25.6378 76.501 26.3885 76.1106 27.0392C75.7302 27.6899 75.2097 28.1954 74.549 28.5558C73.8984 28.9061 73.1676 29.0813 72.3568 29.0813ZM72.3568 27.2494C72.7372 27.2494 73.0925 27.1593 73.4229 26.9792C73.7632 26.789 74.0335 26.5087 74.2337 26.1383C74.4339 25.7679 74.534 25.3174 74.534 24.7869C74.534 23.9961 74.3238 23.3905 73.9034 22.97C73.493 22.5396 72.9874 22.3244 72.3868 22.3244C71.7862 22.3244 71.2807 22.5396 70.8703 22.97C70.4699 23.3905 70.2696 23.9961 70.2696 24.7869C70.2696 25.5777 70.4648 26.1883 70.8552 26.6188C71.2557 27.0392 71.7562 27.2494 72.3568 27.2494ZM81.6467 20.4925C82.2674 20.4925 82.8129 20.6176 83.2834 20.8679C83.7539 21.1081 84.1243 21.4235 84.3946 21.8139V20.6276H86.5117V29.0062C86.5117 29.777 86.3566 30.4627 86.0462 31.0633C85.7359 31.674 85.2704 32.1545 84.6498 32.5048C84.0292 32.8652 83.2784 33.0454 82.3975 33.0454C81.2163 33.0454 80.2453 32.7701 79.4845 32.2195C78.7338 31.669 78.3083 30.9182 78.2082 29.9672H80.2954C80.4055 30.3476 80.6407 30.6479 81.0011 30.8681C81.3715 31.0984 81.8169 31.2135 82.3374 31.2135C82.9481 31.2135 83.4436 31.0283 83.824 30.6579C84.2044 30.2976 84.3946 29.747 84.3946 29.0062V27.7149C84.1243 28.1053 83.7489 28.4306 83.2684 28.6909C82.7979 28.9512 82.2574 29.0813 81.6467 29.0813C80.946 29.0813 80.3054 28.9011 79.7248 28.5408C79.1442 28.1804 78.6837 27.6749 78.3434 27.0242C78.013 26.3635 77.8478 25.6077 77.8478 24.7569C77.8478 23.916 78.013 23.1702 78.3434 22.5196C78.6837 21.8689 79.1392 21.3684 79.7098 21.018C80.2903 20.6677 80.936 20.4925 81.6467 20.4925ZM84.3946 24.7869C84.3946 24.2764 84.2944 23.8409 84.0942 23.4806C83.894 23.1102 83.6238 22.8299 83.2834 22.6397C82.9431 22.4395 82.5777 22.3394 82.1873 22.3394C81.7969 22.3394 81.4365 22.4345 81.1062 22.6247C80.7758 22.8149 80.5056 23.0952 80.2954 23.4656C80.0951 23.8259 79.995 24.2564 79.995 24.7569C79.995 25.2574 80.0951 25.6978 80.2954 26.0782C80.5056 26.4486 80.7758 26.7339 81.1062 26.9341C81.4465 27.1343 81.8069 27.2344 82.1873 27.2344C82.5777 27.2344 82.9431 27.1393 83.2834 26.9491C83.6238 26.7489 83.894 26.4686 84.0942 26.1083C84.2944 25.7379 84.3946 25.2974 84.3946 24.7869ZM92.4088 29.0813C91.608 29.0813 90.8872 28.9061 90.2466 28.5558C89.6059 28.1954 89.1004 27.6899 88.73 27.0392C88.3696 26.3885 88.1895 25.6378 88.1895 24.7869C88.1895 23.936 88.3746 23.1853 88.745 22.5346C89.1254 21.8839 89.6409 21.3834 90.2916 21.0331C90.9423 20.6727 91.668 20.4925 92.4688 20.4925C93.2697 20.4925 93.9954 20.6727 94.6461 21.0331C95.2967 21.3834 95.8073 21.8839 96.1776 22.5346C96.558 23.1853 96.7482 23.936 96.7482 24.7869C96.7482 25.6378 96.553 26.3885 96.1626 27.0392C95.7822 27.6899 95.2617 28.1954 94.601 28.5558C93.9504 28.9061 93.2196 29.0813 92.4088 29.0813ZM92.4088 27.2494C92.7892 27.2494 93.1445 27.1593 93.4749 26.9792C93.8152 26.789 94.0855 26.5087 94.2857 26.1383C94.4859 25.7679 94.586 25.3174 94.586 24.7869C94.586 23.9961 94.3758 23.3905 93.9554 22.97C93.5449 22.5396 93.0394 22.3244 92.4388 22.3244C91.8382 22.3244 91.3327 22.5396 90.9223 22.97C90.5218 23.3905 90.3216 23.9961 90.3216 24.7869C90.3216 25.5777 90.5168 26.1883 90.9072 26.6188C91.3077 27.0392 91.8082 27.2494 92.4088 27.2494ZM106.293 20.6276V28.9462H104.176V27.8951C103.906 28.2555 103.551 28.5408 103.11 28.751C102.68 28.9512 102.209 29.0513 101.699 29.0513C101.048 29.0513 100.472 28.9161 99.972 28.6459C99.4714 28.3656 99.076 27.9602 98.7857 27.4296C98.5055 26.8891 98.3653 26.2484 98.3653 25.5076V20.6276H100.467V25.2073C100.467 25.868 100.633 26.3785 100.963 26.7389C101.293 27.0893 101.744 27.2644 102.314 27.2644C102.895 27.2644 103.35 27.0893 103.681 26.7389C104.011 26.3785 104.176 25.868 104.176 25.2073V20.6276H106.293ZM110.965 22.3544V26.3785C110.965 26.6588 111.03 26.864 111.16 26.9942C111.301 27.1143 111.531 27.1744 111.851 27.1744H112.827V28.9462H111.506C109.734 28.9462 108.848 28.0853 108.848 26.3635V22.3544H107.857V20.6276H108.848V18.5705H110.965V20.6276H112.827V22.3544H110.965Z" fill="white"/>
</svg>